<svg xmlns="http://www.w3.org/2000/svg" xmlns:xlink="http://www.w3.org/1999/xlink" width="216" zoomAndPan="magnify" viewBox="0 0 81 38.999999" height="104" preserveAspectRatio="xMidYMid meet" version="1.0"><defs><g/><clipPath id="ac64bdf0c6"><path d="M 0.0117188 8.347656 L 80.988281 8.347656 L 80.988281 30.847656 L 0.0117188 30.847656 Z M 0.0117188 8.347656 " clip-rule="nonzero"/></clipPath><clipPath id="ed9f558d04"><path d="M 2.1875 10.441406 L 40.4375 10.441406 L 40.4375 28.441406 L 2.1875 28.441406 Z M 2.1875 10.441406 " clip-rule="nonzero"/></clipPath><clipPath id="dbb1d62297"><path d="M 2.195312 10.441406 L 40.429688 10.441406 L 40.429688 28.441406 L 2.195312 28.441406 Z M 2.195312 10.441406 " clip-rule="nonzero"/></clipPath></defs><g clip-path="url(#ac64bdf0c6)"><path stroke-linecap="butt" transform="matrix(0.75, 0, 0, 0.7567, 0.0131776, 8.345981)" fill="none" stroke-linejoin="miter" d="M -0.00194518 0.00221331 L 107.966805 0.00221331 L 107.966805 29.736588 L -0.00194518 29.736588 L -0.00194518 0.00221331 " stroke="#000000" stroke-width="2" stroke-opacity="1" stroke-miterlimit="4"/></g><g clip-path="url(#ed9f558d04)"><path fill="#263da8" d="M 2.195312 10.441406 L 40.429688 10.441406 L 40.429688 28.441406 L 2.195312 28.441406 L 2.195312 10.441406 " fill-opacity="1" fill-rule="nonzero"/></g><g clip-path="url(#dbb1d62297)"><path stroke-linecap="butt" transform="matrix(0.748853, 0, 0, 0.745631, 2.197219, 10.442278)" fill="none" stroke-linejoin="miter" d="M -0.00254607 -0.00116927 L 51.054718 -0.00116927 L 51.054718 24.139456 L -0.00254607 24.139456 L -0.00254607 -0.00116927 " stroke="#000000" stroke-width="2" stroke-opacity="1" stroke-miterlimit="4"/></g><g fill="#000000" fill-opacity="1"><g transform="translate(43.405773, 22.55452)"><g><path d="M 0.886719 0 L 1.644531 0 L 1.644531 -4.765625 L 5.007812 0 L 5.71875 0 L 5.71875 -6.085938 L 4.972656 -6.085938 L 4.972656 -1.320312 L 1.609375 -6.085938 L 0.886719 -6.085938 Z M 0.886719 0 "/></g></g></g><g fill="#000000" fill-opacity="1"><g transform="translate(50.671715, 22.55452)"><g><path d="M 3.652344 0.113281 C 5.503906 0.113281 6.808594 -1.191406 6.808594 -3.042969 C 6.808594 -4.894531 5.503906 -6.199219 3.652344 -6.199219 C 1.800781 -6.199219 0.503906 -4.894531 0.503906 -3.042969 C 0.503906 -1.191406 1.800781 0.113281 3.652344 0.113281 Z M 1.285156 -3.042969 C 1.285156 -4.460938 2.25 -5.433594 3.652344 -5.433594 C 5.050781 -5.433594 6.015625 -4.460938 6.015625 -3.042969 C 6.015625 -1.625 5.050781 -0.652344 3.652344 -0.652344 C 2.25 -0.652344 1.285156 -1.625 1.285156 -3.042969 Z M 1.285156 -3.042969 "/></g></g></g><g fill="#000000" fill-opacity="1"><g transform="translate(58.632937, 22.55452)"><g><path d="M 0.886719 0 L 3.355469 0 C 4.582031 0 5.347656 -0.652344 5.347656 -1.703125 C 5.347656 -2.390625 5.007812 -2.902344 4.382812 -3.15625 C 4.878906 -3.40625 5.171875 -3.878906 5.171875 -4.46875 C 5.171875 -5.449219 4.40625 -6.085938 3.242188 -6.085938 L 0.886719 -6.085938 Z M 1.652344 -0.714844 L 1.652344 -2.757812 L 3.328125 -2.757812 C 4.121094 -2.757812 4.5625 -2.382812 4.5625 -1.738281 C 4.5625 -1.085938 4.121094 -0.714844 3.339844 -0.714844 Z M 1.652344 -3.453125 L 1.652344 -5.371094 L 3.226562 -5.371094 C 3.964844 -5.371094 4.390625 -5.023438 4.390625 -4.40625 C 4.390625 -3.800781 3.972656 -3.453125 3.226562 -3.453125 Z M 1.652344 -3.453125 "/></g></g></g><g fill="#000000" fill-opacity="1"><g transform="translate(65.125382, 22.55452)"><g><path d="M 0.886719 0 L 4.609375 0 L 4.609375 -0.730469 L 1.652344 -0.730469 L 1.652344 -6.085938 L 0.886719 -6.085938 Z M 0.886719 0 "/></g></g></g><g fill="#000000" fill-opacity="1"><g transform="translate(70.661818, 22.55452)"><g><path d="M 0.886719 0 L 4.675781 0 L 4.675781 -0.714844 L 1.652344 -0.714844 L 1.652344 -2.746094 L 4.363281 -2.746094 L 4.363281 -3.453125 L 1.652344 -3.453125 L 1.652344 -5.371094 L 4.582031 -5.371094 L 4.582031 -6.085938 L 0.886719 -6.085938 Z M 0.886719 0 "/></g></g></g><g fill="#ffffff" fill-opacity="1"><g transform="translate(3.363813, 22.55452)"><g><path d="M 2.355469 0 L 3.121094 0 L 3.121094 -5.355469 L 5.171875 -5.355469 L 5.171875 -6.085938 L 0.296875 -6.085938 L 0.296875 -5.355469 L 2.355469 -5.355469 Z M 2.355469 0 "/></g></g></g><g fill="#ffffff" fill-opacity="1"><g transform="translate(9.499926, 22.55452)"><g><path d="M 3.164062 0.105469 C 4.632812 0.105469 5.519531 -0.859375 5.519531 -2.476562 L 5.519531 -6.085938 L 4.753906 -6.085938 L 4.753906 -2.53125 C 4.753906 -1.285156 4.207031 -0.644531 3.164062 -0.644531 C 2.128906 -0.644531 1.574219 -1.285156 1.574219 -2.53125 L 1.574219 -6.085938 L 0.816406 -6.085938 L 0.816406 -2.476562 C 0.816406 -0.859375 1.695312 0.105469 3.164062 0.105469 Z M 3.164062 0.105469 "/></g></g></g><g fill="#ffffff" fill-opacity="1"><g transform="translate(16.496448, 22.55452)"><g><path d="M 2.355469 0 L 3.121094 0 L 3.121094 -5.355469 L 5.171875 -5.355469 L 5.171875 -6.085938 L 0.296875 -6.085938 L 0.296875 -5.355469 L 2.355469 -5.355469 Z M 2.355469 0 "/></g></g></g><g fill="#ffffff" fill-opacity="1"><g transform="translate(22.632561, 22.55452)"><g><path d="M 3.652344 0.113281 C 5.503906 0.113281 6.808594 -1.191406 6.808594 -3.042969 C 6.808594 -4.894531 5.503906 -6.199219 3.652344 -6.199219 C 1.800781 -6.199219 0.503906 -4.894531 0.503906 -3.042969 C 0.503906 -1.191406 1.800781 0.113281 3.652344 0.113281 Z M 1.285156 -3.042969 C 1.285156 -4.460938 2.25 -5.433594 3.652344 -5.433594 C 5.050781 -5.433594 6.015625 -4.460938 6.015625 -3.042969 C 6.015625 -1.625 5.050781 -0.652344 3.652344 -0.652344 C 2.25 -0.652344 1.285156 -1.625 1.285156 -3.042969 Z M 1.285156 -3.042969 "/></g></g></g><g fill="#ffffff" fill-opacity="1"><g transform="translate(30.593783, 22.55452)"><g><path d="M 0.886719 0 L 1.652344 0 L 1.652344 -2.183594 L 2.992188 -2.183594 L 4.476562 0 L 5.398438 0 L 3.867188 -2.261719 C 4.753906 -2.476562 5.304688 -3.148438 5.304688 -4.128906 C 5.304688 -5.339844 4.46875 -6.085938 3.207031 -6.085938 L 0.886719 -6.085938 Z M 1.652344 -2.914062 L 1.652344 -5.355469 L 3.121094 -5.355469 C 4.007812 -5.355469 4.519531 -4.902344 4.519531 -4.128906 C 4.519531 -3.355469 4.007812 -2.914062 3.121094 -2.914062 Z M 1.652344 -2.914062 "/></g></g></g><g fill="#ffffff" fill-opacity="1"><g transform="translate(37.170256, 22.55452)"><g/></g></g></svg>
