<svg xmlns="http://www.w3.org/2000/svg" xmlns:xlink="http://www.w3.org/1999/xlink" width="500" zoomAndPan="magnify" viewBox="0 0 375 374.999991" height="500" preserveAspectRatio="xMidYMid meet" version="1.0"><defs><g/><clipPath id="42f2716047"><path d="M 56.65625 151.464844 L 318.40625 151.464844 L 318.40625 223.464844 L 56.65625 223.464844 Z M 56.65625 151.464844 " clip-rule="nonzero"/></clipPath><clipPath id="3304d337d6"><path d="M 63.726562 158.238281 L 187.476562 158.238281 L 187.476562 216.738281 L 63.726562 216.738281 Z M 63.726562 158.238281 " clip-rule="nonzero"/></clipPath></defs><g clip-path="url(#42f2716047)"><path stroke-linecap="butt" transform="matrix(0.750202, 0, 0, 0.749268, 56.656333, 151.465449)" fill="none" stroke-linejoin="miter" d="M -0.000110343 -0.000808127 L 348.906138 -0.000808127 L 348.906138 96.092952 L -0.000110343 96.092952 L -0.000110343 -0.000808127 " stroke="#000000" stroke-width="6" stroke-opacity="1" stroke-miterlimit="4"/></g><g clip-path="url(#3304d337d6)"><path fill="#263da8" d="M 63.726562 158.238281 L 187.472656 158.238281 L 187.472656 216.738281 L 63.726562 216.738281 L 63.726562 158.238281 " fill-opacity="1" fill-rule="nonzero"/></g><g fill="#000000" fill-opacity="1"><g transform="translate(196.887706, 197.368259)"><g><path d="M 2.863281 0 L 5.308594 0 L 5.308594 -15.390625 L 16.179688 0 L 18.480469 0 L 18.480469 -19.660156 L 16.066406 -19.660156 L 16.066406 -4.269531 L 5.195312 -19.660156 L 2.863281 -19.660156 Z M 2.863281 0 "/></g></g></g><g fill="#000000" fill-opacity="1"><g transform="translate(220.361843, 197.368259)"><g><path d="M 11.796875 0.363281 C 17.78125 0.363281 21.992188 -3.847656 21.992188 -9.832031 C 21.992188 -15.8125 17.78125 -20.027344 11.796875 -20.027344 C 5.8125 -20.027344 1.628906 -15.8125 1.628906 -9.832031 C 1.628906 -3.847656 5.8125 0.363281 11.796875 0.363281 Z M 4.15625 -9.832031 C 4.15625 -14.410156 7.273438 -17.554688 11.796875 -17.554688 C 16.320312 -17.554688 19.4375 -14.410156 19.4375 -9.832031 C 19.4375 -5.253906 16.320312 -2.105469 11.796875 -2.105469 C 7.273438 -2.105469 4.15625 -5.253906 4.15625 -9.832031 Z M 4.15625 -9.832031 "/></g></g></g><g fill="#000000" fill-opacity="1"><g transform="translate(246.082226, 197.368259)"><g><path d="M 2.863281 0 L 10.839844 0 C 14.800781 0 17.273438 -2.105469 17.273438 -5.503906 C 17.273438 -7.722656 16.179688 -9.382812 14.15625 -10.195312 C 15.757812 -11.011719 16.710938 -12.527344 16.710938 -14.4375 C 16.710938 -17.609375 14.242188 -19.660156 10.476562 -19.660156 L 2.863281 -19.660156 Z M 5.335938 -2.304688 L 5.335938 -8.902344 L 10.757812 -8.902344 C 13.3125 -8.902344 14.746094 -7.695312 14.746094 -5.617188 C 14.746094 -3.511719 13.3125 -2.304688 10.785156 -2.304688 Z M 5.335938 -11.152344 L 5.335938 -17.359375 L 10.421875 -17.359375 C 12.808594 -17.359375 14.183594 -16.234375 14.183594 -14.242188 C 14.183594 -12.273438 12.835938 -11.152344 10.421875 -11.152344 Z M 5.335938 -11.152344 "/></g></g></g><g fill="#000000" fill-opacity="1"><g transform="translate(267.05742, 197.368259)"><g><path d="M 2.863281 0 L 14.886719 0 L 14.886719 -2.359375 L 5.335938 -2.359375 L 5.335938 -19.660156 L 2.863281 -19.660156 Z M 2.863281 0 "/></g></g></g><g fill="#000000" fill-opacity="1"><g transform="translate(284.944025, 197.368259)"><g><path d="M 2.863281 0 L 15.109375 0 L 15.109375 -2.304688 L 5.335938 -2.304688 L 5.335938 -8.875 L 14.101562 -8.875 L 14.101562 -11.152344 L 5.335938 -11.152344 L 5.335938 -17.359375 L 14.800781 -17.359375 L 14.800781 -19.660156 L 2.863281 -19.660156 Z M 2.863281 0 "/></g></g></g><g fill="#ffffff" fill-opacity="1"><g transform="translate(67.523826, 197.368259)"><g><path d="M 7.613281 0 L 10.082031 0 L 10.082031 -17.300781 L 16.710938 -17.300781 L 16.710938 -19.660156 L 0.953125 -19.660156 L 0.953125 -17.300781 L 7.613281 -17.300781 Z M 7.613281 0 "/></g></g></g><g fill="#ffffff" fill-opacity="1"><g transform="translate(87.347812, 197.368259)"><g><path d="M 10.222656 0.335938 C 14.96875 0.335938 17.835938 -2.78125 17.835938 -8.003906 L 17.835938 -19.660156 L 15.363281 -19.660156 L 15.363281 -8.171875 C 15.363281 -4.15625 13.59375 -2.078125 10.222656 -2.078125 C 6.882812 -2.078125 5.082031 -4.15625 5.082031 -8.171875 L 5.082031 -19.660156 L 2.640625 -19.660156 L 2.640625 -8.003906 C 2.640625 -2.78125 5.476562 0.335938 10.222656 0.335938 Z M 10.222656 0.335938 "/></g></g></g><g fill="#ffffff" fill-opacity="1"><g transform="translate(109.951534, 197.368259)"><g><path d="M 7.613281 0 L 10.082031 0 L 10.082031 -17.300781 L 16.710938 -17.300781 L 16.710938 -19.660156 L 0.953125 -19.660156 L 0.953125 -17.300781 L 7.613281 -17.300781 Z M 7.613281 0 "/></g></g></g><g fill="#ffffff" fill-opacity="1"><g transform="translate(129.775521, 197.368259)"><g><path d="M 11.796875 0.363281 C 17.78125 0.363281 21.992188 -3.847656 21.992188 -9.832031 C 21.992188 -15.8125 17.78125 -20.027344 11.796875 -20.027344 C 5.8125 -20.027344 1.628906 -15.8125 1.628906 -9.832031 C 1.628906 -3.847656 5.8125 0.363281 11.796875 0.363281 Z M 4.15625 -9.832031 C 4.15625 -14.410156 7.273438 -17.554688 11.796875 -17.554688 C 16.320312 -17.554688 19.4375 -14.410156 19.4375 -9.832031 C 19.4375 -5.253906 16.320312 -2.105469 11.796875 -2.105469 C 7.273438 -2.105469 4.15625 -5.253906 4.15625 -9.832031 Z M 4.15625 -9.832031 "/></g></g></g><g fill="#ffffff" fill-opacity="1"><g transform="translate(155.495904, 197.368259)"><g><path d="M 2.863281 0 L 5.335938 0 L 5.335938 -7.050781 L 9.660156 -7.050781 L 14.464844 0 L 17.441406 0 L 12.5 -7.304688 C 15.363281 -8.003906 17.132812 -10.167969 17.132812 -13.339844 C 17.132812 -17.246094 14.4375 -19.660156 10.363281 -19.660156 L 2.863281 -19.660156 Z M 5.335938 -9.410156 L 5.335938 -17.300781 L 10.082031 -17.300781 C 12.949219 -17.300781 14.605469 -15.839844 14.605469 -13.339844 C 14.605469 -10.839844 12.949219 -9.410156 10.082031 -9.410156 Z M 5.335938 -9.410156 "/></g></g></g><g fill="#ffffff" fill-opacity="1"><g transform="translate(176.742568, 197.368259)"><g/></g></g></svg>